<svg width="1011" height="307" viewBox="0 0 1011 307" fill="none" xmlns="http://www.w3.org/2000/svg">
<path d="M475.7 153.9C467.8 153.9 460.5 152.6 453.8 150C447.1 147.3 441.3 143.55 436.4 138.75C431.5 133.95 427.65 128.3 424.85 121.8C422.15 115.3 420.8 108.2 420.8 100.5C420.8 92.8 422.15 85.7 424.85 79.2C427.65 72.7 431.5 67.05 436.4 62.25C441.4 57.45 447.25 53.75 453.95 51.15C460.65 48.45 467.95 47.1 475.85 47.1C483.45 47.1 490.6 48.4 497.3 51C504 53.5 509.65 57.3 514.25 62.4L507.2 69.45C502.9 65.05 498.15 61.9 492.95 60C487.75 58 482.15 57 476.15 57C469.85 57 464 58.1 458.6 60.3C453.2 62.4 448.5 65.45 444.5 69.45C440.5 73.35 437.35 77.95 435.05 83.25C432.85 88.45 431.75 94.2 431.75 100.5C431.75 106.8 432.85 112.6 435.05 117.9C437.35 123.1 440.5 127.7 444.5 131.7C448.5 135.6 453.2 138.65 458.6 140.85C464 142.95 469.85 144 476.15 144C482.15 144 487.75 143 492.95 141C498.15 139 502.9 135.8 507.2 131.4L514.25 138.45C509.65 143.55 504 147.4 497.3 150C490.6 152.6 483.4 153.9 475.7 153.9ZM554.413 153V48H565.513V143.4H624.313V153H554.413ZM659.243 153V48H670.343V153H659.243ZM730.606 126.9L730.156 113.4L793.756 48H806.506L760.156 96.6L753.856 103.35L730.606 126.9ZM721.006 153V48H732.106V153H721.006ZM796.456 153L751.156 100.8L758.656 92.7L809.656 153H796.456ZM844.147 153V48H855.247V153H844.147ZM905.911 153V48H915.061L987.511 139.2H982.711V48H993.661V153H984.511L912.211 61.8H917.011V153H905.911Z" fill="#E7CCB1"/>
<path d="M451.5 279V234.48H434.28V230H473.9V234.48H456.68V279H451.5ZM507.795 251.91H533.695V256.32H507.795V251.91ZM508.355 274.52H537.825V279H503.175V230H536.775V234.48H508.355V274.52ZM592.145 279.42C588.458 279.42 585.051 278.813 581.925 277.6C578.798 276.34 576.091 274.59 573.805 272.35C571.518 270.11 569.721 267.473 568.415 264.44C567.155 261.407 566.525 258.093 566.525 254.5C566.525 250.907 567.155 247.593 568.415 244.56C569.721 241.527 571.518 238.89 573.805 236.65C576.138 234.41 578.868 232.683 581.995 231.47C585.121 230.21 588.528 229.58 592.215 229.58C595.761 229.58 599.098 230.187 602.225 231.4C605.351 232.567 607.988 234.34 610.135 236.72L606.845 240.01C604.838 237.957 602.621 236.487 600.195 235.6C597.768 234.667 595.155 234.2 592.355 234.2C589.415 234.2 586.685 234.713 584.165 235.74C581.645 236.72 579.451 238.143 577.585 240.01C575.718 241.83 574.248 243.977 573.175 246.45C572.148 248.877 571.635 251.56 571.635 254.5C571.635 257.44 572.148 260.147 573.175 262.62C574.248 265.047 575.718 267.193 577.585 269.06C579.451 270.88 581.645 272.303 584.165 273.33C586.685 274.31 589.415 274.8 592.355 274.8C595.155 274.8 597.768 274.333 600.195 273.4C602.621 272.467 604.838 270.973 606.845 268.92L610.135 272.21C607.988 274.59 605.351 276.387 602.225 277.6C599.098 278.813 595.738 279.42 592.145 279.42ZM678.017 230H683.127V279H678.017V230ZM647.357 279H642.177V230H647.357V279ZM678.507 256.39H646.797V251.84H678.507V256.39Z" fill="#E7CCB1"/>
<circle cx="242" cy="240" r="25" fill="#E7CCB1"/>
<path d="M291.219 221.291C307.297 188.629 311.243 151.315 302.352 116.012C293.461 80.7089 272.312 49.7152 242.681 28.5642C213.05 7.41325 176.867 -2.51792 140.59 0.543822C104.314 3.60557 70.3067 19.4609 44.6402 45.279C18.9736 71.0971 3.31868 105.197 0.470491 141.491C-2.3777 177.785 7.76626 213.909 29.0912 243.415C50.4162 272.921 81.534 293.887 116.889 302.57C152.243 311.253 189.533 307.088 222.101 290.818L202.515 251.614C179.246 263.239 152.602 266.215 127.341 260.011C102.08 253.807 79.8465 238.826 64.6097 217.744C49.373 196.662 42.1251 170.851 44.1602 144.919C46.1952 118.988 57.3807 94.623 75.7195 76.1759C94.0583 57.7289 118.357 46.4002 144.276 44.2126C170.196 42.0249 196.049 49.1208 217.22 64.2332C238.391 79.3456 253.502 101.491 259.855 126.715C266.208 151.939 263.388 178.599 251.901 201.937L291.219 221.291Z" fill="#E7CCB1"/>
<circle cx="155" cy="153" r="76" fill="#D9D9D9"/>
</svg>
